<?xml version="1.0" encoding="utf-8"?>
<!-- Generator: Adobe Illustrator 15.1.0, SVG Export Plug-In  -->
<!DOCTYPE svg PUBLIC "-//W3C//DTD SVG 1.1//EN" "http://www.w3.org/Graphics/SVG/1.1/DTD/svg11.dtd" [
	<!ENTITY ns_flows "http://ns.adobe.com/Flows/1.0/">
]>
<svg version="1.1"
	 xmlns="http://www.w3.org/2000/svg" xmlns:xlink="http://www.w3.org/1999/xlink" xmlns:a="http://ns.adobe.com/AdobeSVGViewerExtensions/3.0/"
	 x="0px" y="0px" width="400px" height="151px" viewBox="-3.719 -6.323 400 151" enable-background="new -3.719 -6.323 400 151"
	 xml:space="preserve">
<defs>
</defs>
<path fill="#FFFFFF" d="M77.668,22.514c8.868,8.87,13.303,19.597,13.303,32.183v37.838c0,2.125-0.744,3.931-2.23,5.417
	c-1.487,1.487-3.266,2.23-5.337,2.23c-2.125,0-3.903-0.743-5.337-2.23c-1.487-1.486-2.23-3.293-2.23-5.417v-3.982
	c-8.657,7.755-18.773,11.63-30.351,11.63c-12.534,0-23.261-4.461-32.183-13.383C4.433,77.932,0,67.231,0,54.697
	c0-12.586,4.433-23.313,13.303-32.183c8.922-8.869,19.648-13.303,32.183-13.303C58.072,9.211,68.798,13.646,77.668,22.514z
	 M45.485,24.347c-8.392,0-15.533,2.948-21.429,8.843c-5.948,5.948-8.921,13.118-8.921,21.508c0,8.338,2.974,15.481,8.921,21.428
	c5.896,5.896,13.037,8.843,21.429,8.843c8.391,0,15.534-2.948,21.428-8.843c5.948-5.947,8.922-13.09,8.922-21.428
	c0-8.39-2.975-15.56-8.922-21.508C61.02,27.294,53.876,24.347,45.485,24.347z"/>
<path fill="#FFFFFF" d="M191.349,93.333c0,12.532-4.434,23.261-13.303,32.182c-8.87,8.869-19.597,13.304-32.183,13.304
	c-8.976,0-17.207-2.443-24.694-7.328c-7.542-4.888-13.144-11.445-16.808-19.677c-0.851-1.859-0.904-3.771-0.16-5.735
	c0.743-1.965,2.071-3.372,3.982-4.222c1.912-0.85,3.824-0.904,5.736-0.16c1.964,0.743,3.372,2.071,4.222,3.984
	c2.442,5.469,6.186,9.849,11.232,13.144c4.991,3.237,10.488,4.858,16.489,4.858c8.391,0,15.534-2.975,21.429-8.922
	c5.947-5.895,8.921-13.037,8.921-21.428v-4.78c-8.657,7.755-18.773,11.63-30.35,11.63c-12.534,0-23.261-4.461-32.183-13.383
	c-8.869-8.869-13.303-19.569-13.303-32.103V16.779c0-2.125,0.743-3.93,2.23-5.417c1.486-1.435,3.266-2.151,5.337-2.151
	c2.123,0,3.903,0.717,5.337,2.151c1.486,1.487,2.23,3.292,2.23,5.417v37.918c0,8.338,2.974,15.481,8.922,21.428
	c5.895,5.896,13.037,8.843,21.428,8.843c8.391,0,15.534-2.948,21.429-8.843c5.947-5.947,8.921-13.09,8.921-21.428V16.779
	c0-2.125,0.743-3.93,2.23-5.417c1.435-1.435,3.212-2.151,5.338-2.151c2.071,0,3.849,0.717,5.337,2.151
	c1.486,1.487,2.23,3.292,2.23,5.417V93.333z"/>
<g>
	<g>
		<g>
			<path fill="#FFFFFF" d="M245.242,4.514c12.587,0,23.314,4.435,32.185,13.304c8.867,8.87,13.303,19.597,13.303,32.183
				c0,12.533-4.436,23.234-13.303,32.103c-8.87,8.921-19.598,13.382-32.185,13.382c-12.531,0-23.262-4.461-32.183-13.382
				c-8.87-8.869-13.303-19.57-13.303-32.103c0-12.586,4.433-23.313,13.303-32.183C221.98,8.949,232.711,4.514,245.242,4.514z
				 M223.813,28.493c-5.95,5.948-8.922,13.117-8.922,21.508c0,8.339,2.972,15.481,8.922,21.428
				c5.896,5.895,13.04,8.841,21.429,8.841c8.393,0,15.536-2.946,21.431-8.841c5.947-5.947,8.922-13.089,8.922-21.428
				c0-8.391-2.975-15.56-8.922-21.508c-5.895-5.896-13.038-8.843-21.431-8.843C236.854,19.65,229.71,22.597,223.813,28.493z"/>
		</g>
		<path fill="#FFFFFF" d="M288.688,109.227c0-4.195-3.401-7.599-7.596-7.599c-2.952,0-5.48,1.699-6.74,4.157l-0.043-0.021
			c-1.477,3.453-3.633,6.62-6.519,9.481c-5.896,5.947-13.039,8.922-21.428,8.922c-6.002,0-11.499-1.621-16.492-4.859
			c-5.046-3.294-8.791-7.676-11.23-13.145c-0.851-1.912-2.259-3.239-4.224-3.982c-1.912-0.744-3.822-0.689-5.734,0.159
			c-1.913,0.851-3.241,2.256-3.982,4.222c-0.745,1.964-0.693,3.875,0.157,5.734c3.665,8.233,9.268,14.791,16.81,19.678
			c7.538,4.886,15.771,7.328,24.696,7.328c12.586,0,23.312-4.436,32.182-13.303c4.131-4.157,7.267-8.717,9.474-13.657l-0.012-0.004
			C288.436,111.386,288.688,110.338,288.688,109.227z"/>
		<path fill="#FFFFFF" d="M299.865,12.1c0,4.189-3.396,7.583-7.587,7.583h-42.93c-4.189,0-7.585-3.394-7.585-7.583l0,0
			c0-4.19,3.396-7.586,7.585-7.586h42.93C296.47,4.514,299.865,7.91,299.865,12.1L299.865,12.1z"/>
	</g>
</g>
<g>
	<g>
		<path fill="#FFFFFF" d="M347.797,0c12.587,0,23.313,4.435,32.183,13.304c8.87,8.87,13.302,19.597,13.302,32.183
			c0,12.533-4.432,23.234-13.302,32.103c-8.87,8.921-19.596,13.382-32.183,13.382c-12.534,0-23.263-4.461-32.184-13.382
			c-8.87-8.869-13.303-19.57-13.303-32.103c0-12.586,4.433-23.313,13.303-32.183C324.534,4.435,335.263,0,347.797,0z
			 M326.367,23.979c-5.947,5.948-8.922,13.117-8.922,21.508c0,8.337,2.975,15.481,8.922,21.428
			c5.895,5.895,13.038,8.843,21.43,8.843c8.39,0,15.533-2.948,21.428-8.843c5.947-5.947,8.922-13.09,8.922-21.428
			c0-8.391-2.975-15.56-8.922-21.508c-5.895-5.896-13.038-8.843-21.428-8.843C339.405,15.136,332.262,18.083,326.367,23.979z"/>
	</g>
</g>
</svg>
